<svg width="35" height="35" viewBox="0 0 35 35" fill="none" xmlns="http://www.w3.org/2000/svg">
<g clip-path="url(#clip0_8_4)">
<path d="M35 17.5C35 27.166 27.166 35 17.5 35C7.83398 35 0 27.166 0 17.5C0 7.83398 7.83398 0 17.5 0C27.166 0 35 7.83398 35 17.5ZM6.80176 9.89844C5.27393 12.0381 4.375 14.6631 4.375 17.5C4.375 24.7461 10.1924 30.625 17.5 30.625C20.3369 30.625 22.9619 29.7295 25.1016 28.1982L6.80176 9.89844ZM30.625 17.5C30.625 10.1924 24.7461 4.375 17.5 4.375C14.6631 4.375 12.0381 5.27393 9.89844 6.80176L28.1982 25.1016C29.7295 22.9619 30.625 20.3369 30.625 17.5Z" fill="#3B695B"/>
</g>
<defs>
<clipPath id="clip0_8_4">
<rect width="35" height="35" fill="white"/>
</clipPath>
</defs>
</svg>
