<svg width="22" height="35" viewBox="0 0 22 35" fill="none" xmlns="http://www.w3.org/2000/svg">
<g clip-path="url(#clip0_3_25)">
<path d="M21.2324 24.7051C22.0869 25.5596 22.0869 26.9438 21.2324 27.7983C20.8086 28.2256 20.248 28.4375 19.6875 28.4375C19.127 28.4375 18.5678 28.2239 18.1412 27.7966L10.9375 20.5967L3.73447 27.7949C3.30723 28.2256 2.74736 28.4375 2.1875 28.4375C1.62764 28.4375 1.06846 28.2256 0.640869 27.7949C-0.213623 26.9404 -0.213623 25.5562 0.640869 24.7017L7.84595 17.4966L0.640869 10.2949C-0.213623 9.44043 -0.213623 8.05615 0.640869 7.20166C1.49536 6.34717 2.87964 6.34717 3.73413 7.20166L10.9375 14.4102L18.1426 7.20508C18.9971 6.35059 20.3813 6.35059 21.2358 7.20508C22.0903 8.05957 22.0903 9.44385 21.2358 10.2983L14.0308 17.5034L21.2324 24.7051Z" fill="#3B695B"/>
</g>
<defs>
<clipPath id="clip0_3_25">
<rect width="21.875" height="35" fill="white"/>
</clipPath>
</defs>
</svg>
