<svg width="31" height="35" viewBox="0 0 31 35" fill="none" xmlns="http://www.w3.org/2000/svg">
<g clip-path="url(#clip0_8_2)">
<path d="M9.24219 1.20928C9.61133 0.468125 10.3701 0 11.1973 0H19.4277C20.2549 0 21.0137 0.468125 21.3828 1.20928L21.875 2.1875H28.4375C29.6475 2.1875 30.625 3.16709 30.625 4.375C30.625 5.58291 29.6475 6.5625 28.4375 6.5625H2.1875C0.97959 6.5625 0 5.58291 0 4.375C0 3.16709 0.97959 2.1875 2.1875 2.1875H8.75L9.24219 1.20928ZM26.9883 31.8623C26.8789 33.6533 25.4502 35 23.7139 35H6.91113C5.17822 35 3.74404 33.6533 3.63604 31.8623L2.12598 8.75H28.4375L26.9883 31.8623Z" fill="#3B695B"/>
</g>
<defs>
<clipPath id="clip0_8_2">
<rect width="30.625" height="35" fill="white"/>
</clipPath>
</defs>
</svg>
