<svg width="31" height="35" viewBox="0 0 31 35" fill="none" xmlns="http://www.w3.org/2000/svg">
<g clip-path="url(#clip0_7_6)">
<path d="M29.6064 8.8252L23.8711 3.08984C23.3994 2.61953 22.3604 2.1875 21.6084 2.1875H4.375C1.9585 2.1875 0 4.146 0 6.5625V28.4375C0 30.854 1.9585 32.8125 4.375 32.8125H26.25C28.6665 32.8125 30.625 30.854 30.625 28.4375V11.2041C30.625 10.4521 30.1943 9.41309 29.6064 8.8252ZM15.3125 28.4375C12.8967 28.4375 10.9375 26.4783 10.9375 24.0625C10.9375 21.6467 12.8967 19.6875 15.3125 19.6875C17.7283 19.6875 19.6875 21.6467 19.6875 24.0625C19.6875 26.4783 17.7256 28.4375 15.3125 28.4375ZM21.875 14.2188C21.875 14.8203 21.3828 15.3125 20.7812 15.3125H5.46875C4.86445 15.3125 4.375 14.8203 4.375 14.2188V7.65625C4.375 7.05469 4.86445 6.5625 5.46875 6.5625H20.7812C21.3828 6.5625 21.875 7.05469 21.875 7.65625V14.2188Z" fill="#3B695B"/>
</g>
<defs>
<clipPath id="clip0_7_6">
<rect width="30.625" height="35" fill="white"/>
</clipPath>
</defs>
</svg>
