<svg width="29" height="25" viewBox="0 0 29 25" fill="none" xmlns="http://www.w3.org/2000/svg">
<g clip-path="url(#clip0_4_27)">
<path d="M28.1152 12.4756C28.1152 13.3545 27.3828 14.043 26.5527 14.043H24.9902L25.0244 21.8604C25.0244 21.9971 25.0146 22.124 25 22.2559V23.0469C25 24.126 24.126 25 23.0469 25H22.2656C22.2119 25 22.1582 24.9561 22.1045 24.9951C22.0361 24.9561 21.9678 25 21.8994 25H19.1406C18.0615 25 17.1875 24.126 17.1875 23.0469V18.75C17.1875 17.8857 16.4893 17.1875 15.625 17.1875H12.5C11.6357 17.1875 10.9375 17.8857 10.9375 18.75V23.0469C10.9375 24.126 10.0635 25 8.98438 25H6.25488C6.18164 25 6.1084 24.9951 6.03516 24.9902C5.97656 24.9951 5.91797 25 5.85938 25H5.07812C3.99951 25 3.125 24.126 3.125 23.0469V17.5781C3.125 17.5342 3.12646 17.4854 3.12939 17.4414V14.043H1.56494C0.68457 14.043 0 13.3545 0 12.4756C0 12.0361 0.14668 11.6455 0.48877 11.3037L13.0078 0.391406C13.3496 0.0489258 13.7402 0 14.082 0C14.4238 0 14.8145 0.0978515 15.1123 0.34248L27.5781 11.3037C27.9687 11.6455 28.1689 12.0361 28.1152 12.4756Z" fill="#3B695B"/>
</g>
<defs>
<clipPath id="clip0_4_27">
<rect width="28.125" height="25" fill="white"/>
</clipPath>
</defs>
</svg>
