<svg width="25" height="25" viewBox="0 0 25 25" fill="none" xmlns="http://www.w3.org/2000/svg">
<g clip-path="url(#clip0_2_9)">
<path d="M21.831 1.5625H3.08104C1.39842 1.5625 -0.000457764 2.96143 -0.000457764 4.6875V20.3125C-0.000457764 22.0386 1.39847 23.4375 3.0806 23.4375H21.8306C23.5567 23.4375 24.9556 22.0386 24.9556 20.3125V4.6875C24.956 2.96143 23.5986 1.5625 21.831 1.5625ZM5.42479 4.6875C6.71922 4.6875 7.76854 5.73682 7.76854 7.03125C7.76854 8.32568 6.76268 9.375 5.42479 9.375C4.0869 9.375 3.08104 8.32568 3.08104 7.03125C3.08104 5.73682 4.17381 4.6875 5.42479 4.6875ZM21.7822 19.9023C21.6455 20.1563 21.3818 20.3125 21.0937 20.3125H4.00438C3.71039 20.3125 3.44139 20.1475 3.30809 19.8853C3.17479 19.6232 3.19994 19.3086 3.37323 19.0708L6.7912 14.3833C6.93846 14.1797 7.17284 14.0625 7.42186 14.0625C7.67088 14.0625 7.90604 14.1817 8.05321 14.3835L9.63817 16.5568L14.1938 9.76484C14.3408 9.50684 14.5849 9.375 14.8437 9.375C15.1025 9.375 15.3491 9.50547 15.4936 9.7229L21.7436 19.0979C21.9043 19.3359 21.9189 19.6436 21.7822 19.9023Z" fill="#3B695B"/>
</g>
<defs>
<clipPath id="clip0_2_9">
<rect width="25" height="25" fill="white"/>
</clipPath>
</defs>
</svg>
