<svg width="25" height="25" viewBox="0 0 25 25" fill="none" xmlns="http://www.w3.org/2000/svg">
<g clip-path="url(#clip0_11_2)">
<path d="M10.874 1.56982C11.1182 2.39648 10.6494 3.2666 9.81934 3.51269C5.94727 4.66552 3.125 8.25683 3.125 12.4561C3.125 17.6758 7.28027 21.8311 12.5 21.8311C17.6758 21.8311 21.875 17.6758 21.875 12.4561C21.875 8.25683 19.0527 4.66552 15.1807 3.51269C14.3506 3.2666 13.8818 2.39648 14.126 1.56982C14.375 0.742672 15.2441 0.271578 16.0693 0.517574C21.2354 2.0542 25 6.79199 25 12.4561C25 19.4043 19.4043 24.9561 12.5 24.9561C5.5957 24.9561 0 19.4043 0 12.4561C0 6.79199 3.76709 2.0542 8.93066 0.517574C9.75586 0.271578 10.625 0.742672 10.874 1.56982Z" fill="white"/>
</g>
<defs>
<clipPath id="clip0_11_2">
<rect width="25" height="25" fill="white"/>
</clipPath>
</defs>
</svg>
