<svg width="25" height="25" viewBox="0 0 25 25" fill="none" xmlns="http://www.w3.org/2000/svg">
<path d="M23.4375 1.5625H6.25C5.38574 1.5625 4.6875 2.26221 4.6875 3.125V19.5312C4.6875 19.9609 4.33789 20.3125 3.90625 20.3125C3.47461 20.3125 3.125 19.9609 3.125 19.5312V4.6875H1.5625C0.699707 4.6875 0 5.38574 0 6.25V20.3125C0 22.0386 1.39893 23.4375 3.125 23.4375H21.875C23.6011 23.4375 25 22.0386 25 20.3125V3.125C25 2.26221 24.3018 1.5625 23.4375 1.5625ZM13.2812 20.3125H8.59375C8.16406 20.3125 7.8125 19.9609 7.8125 19.5312C7.8125 19.1016 8.16406 18.75 8.59375 18.75H13.2812C13.7127 18.75 14.0625 19.0997 14.0625 19.5312C14.0625 19.9609 13.7109 20.3125 13.2812 20.3125ZM13.2812 15.625H8.59375C8.16406 15.625 7.8125 15.2734 7.8125 14.8438C7.8125 14.4141 8.16406 14.0625 8.59375 14.0625H13.2812C13.7109 14.0625 14.0625 14.4141 14.0625 14.8438C14.0625 15.2734 13.7109 15.625 13.2812 15.625ZM21.0938 20.3125H16.4062C15.9748 20.3125 15.625 19.9627 15.625 19.5312C15.625 19.0997 15.9748 18.75 16.4062 18.75H21.0938C21.5252 18.75 21.875 19.0997 21.875 19.5312C21.875 19.9609 21.5234 20.3125 21.0938 20.3125ZM21.0938 15.625H16.4062C15.9766 15.625 15.625 15.2734 15.625 14.8438C15.625 14.4141 15.9766 14.0625 16.4062 14.0625H21.0938C21.5234 14.0625 21.875 14.4141 21.875 14.8438C21.875 15.2734 21.5234 15.625 21.0938 15.625ZM21.875 10.1562C21.875 10.5859 21.5234 10.9375 21.0938 10.9375H8.59375C8.16406 10.9375 7.8125 10.5859 7.8125 10.1562V5.46875C7.8125 5.03906 8.16406 4.6875 8.59375 4.6875H21.0938C21.5234 4.6875 21.875 5.03906 21.875 5.46875V10.1562Z" fill="#3B695B"/>
</svg>
