<svg width="35" height="35" viewBox="0 0 35 35" fill="none" xmlns="http://www.w3.org/2000/svg">
<g clip-path="url(#clip0_6_4)">
<path d="M24.7939 1.3207C26.5029 -0.388149 29.2783 -0.388149 30.9873 1.3207L33.6807 4.01611C35.3896 5.72441 35.3896 8.49707 33.6807 10.206L30.3721 13.5146L21.4854 4.62929L24.7939 1.3207ZM28.8271 15.0596L12.8857 30.9941C12.1748 31.7051 11.293 32.2314 10.3291 32.5117L2.10342 34.9316C1.52783 35.1025 0.905078 34.9453 0.480566 34.46C0.0560408 34.0977 -0.102676 33.4756 0.0667185 32.8945L2.48623 24.6709C2.77061 23.707 3.29219 22.8252 4.00381 22.1143L19.9404 6.17558L28.8271 15.0596Z" fill="#3B695B"/>
</g>
<defs>
<clipPath id="clip0_6_4">
<rect width="35" height="35" fill="white"/>
</clipPath>
</defs>
</svg>
