<svg width="35" height="35" viewBox="0 0 35 35" fill="none" xmlns="http://www.w3.org/2000/svg">
<path d="M17.5 2.12598C7.83398 2.12598 0.0615237 8.4916 0.0615237 16.3447C0.0615237 19.7367 1.521 22.8375 3.95596 25.2793C3.10147 28.7226 0.246094 31.7919 0.211914 31.8261C0.0581057 31.9799 0.0153811 32.218 0.109375 32.4231C0.194756 32.6282 0.384248 32.7489 0.606416 32.7489C5.13522 32.7489 8.47458 30.5778 10.2177 29.2359C12.4483 30.0733 14.9359 30.5614 17.5595 30.5614C27.2256 30.5614 34.998 24.1951 34.998 16.4042C34.998 8.61328 27.166 2.12598 17.5 2.12598ZM8.68848 18.5322C7.4751 18.5322 6.50098 17.5581 6.50098 16.4062C6.50098 15.2544 7.4751 14.2187 8.68848 14.2187C9.90186 14.2187 10.876 15.1929 10.876 16.4062C10.876 17.6196 9.95996 18.5322 8.68848 18.5322ZM17.5 18.5322C16.2866 18.5322 15.374 17.5581 15.374 16.4062C15.374 15.2544 16.3481 14.2187 17.5 14.2187C18.6519 14.2187 19.626 15.1929 19.626 16.4062C19.626 17.6196 18.7168 18.5322 17.5 18.5322ZM26.1885 18.5322C24.9751 18.5322 24.001 17.5581 24.001 16.4062C24.001 15.2544 24.9751 14.2187 26.1885 14.2187C27.4019 14.2187 28.376 15.1929 28.376 16.4062C28.376 17.6196 27.46 18.5322 26.1885 18.5322Z" fill="#3B695B"/>
</svg>
