<svg width="25" height="25" viewBox="0 0 25 25" fill="none" xmlns="http://www.w3.org/2000/svg">
<g clip-path="url(#clip0_4_29)">
<path d="M24.2139 8.13477C24.375 8.55469 24.2383 9.02832 23.9062 9.33594L21.792 11.2598C21.8457 11.665 21.875 12.0801 21.875 12.5C21.875 12.9199 21.8457 13.335 21.792 13.7402L23.9062 15.6641C24.2383 15.9717 24.375 16.4453 24.2139 16.8652C23.999 17.4463 23.7402 18.0078 23.4473 18.54L23.2178 18.9355C22.8955 19.4727 22.5342 19.9805 22.1387 20.4639C21.8457 20.8105 21.3721 20.9326 20.9424 20.7959L18.2227 19.9268C17.5684 20.4297 16.8018 20.8496 16.0742 21.1719L15.4639 23.96C15.3662 24.3994 15.0244 24.7119 14.5752 24.8291C13.9014 24.9414 13.208 25 12.4561 25C11.792 25 11.0986 24.9414 10.4248 24.8291C9.97558 24.7119 9.63379 24.3994 9.53613 23.96L8.92578 21.1719C8.15429 20.8496 7.43164 20.4297 6.77734 19.9268L4.05957 20.7959C3.62793 20.9326 3.15185 20.8105 2.86279 20.4639C2.46679 19.9805 2.10547 19.4727 1.7832 18.9355L1.55469 18.54C1.2583 18.0078 1.00049 17.4463 0.784177 16.8652C0.625974 16.4453 0.759275 15.9717 1.09424 15.6641L3.20654 13.7402C3.15283 13.335 3.125 12.9199 3.125 12.5C3.125 12.0801 3.15283 11.665 3.20654 11.2598L1.09424 9.33594C0.759275 9.02832 0.625974 8.55957 0.784177 8.13477C1.00049 7.55371 1.25879 6.99219 1.55469 6.45996L1.78271 6.06445C2.10547 5.52734 2.46679 5.01953 2.86279 4.53857C3.15185 4.18945 3.62793 4.06836 4.05957 4.20605L6.77734 5.07324C7.43164 4.56836 8.15429 4.14844 8.92578 3.82959L9.53613 1.0415C9.63379 0.598145 9.97558 0.246094 10.4248 0.171387C11.0986 0.0586426 11.792 0 12.5 0C13.208 0 13.9014 0.0586426 14.5752 0.171387C15.0244 0.246094 15.3662 0.598145 15.4639 1.0415L16.0742 3.82959C16.8018 4.14844 17.5684 4.56836 18.2227 5.07324L20.9424 4.20605C21.3721 4.06836 21.8457 4.18945 22.1387 4.53857C22.5342 5.01953 22.8955 5.52734 23.2178 6.06445L23.4473 6.45996C23.7402 6.99219 23.999 7.55371 24.2139 8.13477ZM12.5 16.4062C14.6582 16.4062 16.4062 14.6582 16.4062 12.4561C16.4062 10.3418 14.6582 8.5498 12.5 8.5498C10.3418 8.5498 8.59375 10.3418 8.59375 12.4561C8.59375 14.6582 10.3418 16.4062 12.5 16.4062Z" fill="#3B695B"/>
</g>
<defs>
<clipPath id="clip0_4_29">
<rect width="25" height="25" fill="white"/>
</clipPath>
</defs>
</svg>
