<svg width="25" height="25" viewBox="0 0 25 25" fill="none" xmlns="http://www.w3.org/2000/svg">
<g clip-path="url(#clip0_2_3)">
<path d="M23.0859 8.22265C25.6396 10.8105 25.6396 14.9707 23.0859 17.5586L17.6172 23.0908C17.1631 23.5498 16.4209 23.5547 15.9619 23.1006C15.498 22.6465 15.498 21.9043 15.9521 21.4404L21.416 15.9131C23.0713 14.2383 23.0713 11.543 21.416 9.86815L15.1807 3.5581C14.7217 3.09765 14.7266 2.35595 15.1904 1.90087C15.6494 1.44579 16.3916 1.45019 16.8018 1.91063L23.0859 8.22265ZM1.46484e-05 11.206V3.90624C1.46484e-05 2.61181 1.04932 1.56249 2.34375 1.56249H9.64355C10.4736 1.56249 11.2646 1.89159 11.8506 2.47802L20.0537 10.6787C21.2744 11.8994 21.2744 13.8818 20.0537 15.1025L13.54 21.6162C12.3193 22.8369 10.3369 22.8369 9.11621 21.6162L0.915527 13.4131C0.329248 12.8271 0 12.0361 0 11.206H1.46484e-05ZM5.46875 5.46874C4.60596 5.46874 3.90625 6.16698 3.90625 7.03124C3.90625 7.8955 4.60596 8.59374 5.46875 8.59374C6.33301 8.59374 7.03125 7.8955 7.03125 7.03124C7.03125 6.16698 6.33301 5.46874 5.46875 5.46874Z" fill="#3B695B"/>
</g>
<defs>
<clipPath id="clip0_2_3">
<rect width="25" height="25" fill="white"/>
</clipPath>
</defs>
</svg>
