<svg width="44" height="35" viewBox="0 0 44 35" fill="none" xmlns="http://www.w3.org/2000/svg">
<g clip-path="url(#clip0_2_15)">
<path d="M21.8682 21.875C25.7927 21.875 28.916 18.6922 28.916 14.7656C28.916 10.8391 25.7346 7.65625 21.8682 7.65625C17.9437 7.65625 14.8203 10.8391 14.8203 14.7656C14.7588 18.6895 17.9443 21.875 21.8682 21.875ZM25.2861 24.0625H18.4639C13.0977 24.0625 8.75 28.1436 8.75 33.1748C8.75 34.1865 9.61816 35 10.6914 35H33.0586C34.1318 35 35 34.1865 35 33.1748C35 28.1436 30.6523 24.0625 25.2861 24.0625ZM35 10.9375C38.0201 10.9375 40.4688 8.48887 40.4688 5.46875C40.4688 2.44863 38.0215 0 35 0C31.9799 0 29.5312 2.44863 29.5312 5.46875C29.5312 8.48887 31.9785 10.9375 35 10.9375ZM12.5713 14.7656C12.5713 14.3931 12.6384 14.039 12.6813 13.678C11.9355 13.2686 11.1152 13.125 10.2471 13.125H6.02109C2.69609 13.125 0 15.9824 0 19.5029C0 20.207 0.53915 20.7812 1.20449 20.7812H14.8422C13.4463 19.1543 12.5713 17.0693 12.5713 14.7656ZM8.75 10.9375C11.7701 10.9375 14.2188 8.48887 14.2188 5.46875C14.2188 2.44863 11.7715 0 8.75 0C5.72988 0 3.28125 2.44863 3.28125 5.46875C3.28125 8.48887 5.72988 10.9375 8.75 10.9375ZM37.7275 13.125H33.5002C32.6252 13.125 31.7994 13.3326 31.0488 13.6883C31.0898 14.0479 31.1582 14.3965 31.1582 14.7656C31.1582 17.07 30.2846 19.155 28.8914 20.7812H42.5428C43.21 20.7812 43.75 20.207 43.75 19.5029C43.75 15.9824 41.0566 13.125 37.7275 13.125Z" fill="#3B695B"/>
</g>
<defs>
<clipPath id="clip0_2_15">
<rect width="43.75" height="35" fill="white"/>
</clipPath>
</defs>
</svg>
